<svg width="64" height="64" viewBox="0 0 64 64" fill="none" xmlns="http://www.w3.org/2000/svg">
<path d="M61.9998 62.72H1.99979C1.60179 62.72 1.27979 62.398 1.27979 62V2H2.71979V61.28H61.9998V62.72ZM8.50779 56.51L7.48979 55.49L18.8298 44.15C10.1898 39.348 6.74179 44.188 6.59579 44.402L5.39979 43.602C5.44179 43.536 9.76578 37.304 19.8818 43.098L32.1278 30.852C28.0718 22.472 24.3578 14.624 27.4898 11.49C31.7018 7.27 43.1038 15.024 45.9258 17.054L57.4878 5.49L58.5078 6.508L47.1698 17.846C50.0418 19.404 52.6638 19.884 54.9358 19.228C57.9658 18.356 59.3418 15.702 59.3558 15.676L60.6438 16.322C60.5778 16.452 58.9958 19.546 55.3578 20.606C52.6178 21.402 49.5118 20.83 46.1158 18.902L33.8698 31.148C37.9238 39.528 41.6418 47.376 38.5078 50.51C34.2878 54.716 22.8898 46.976 20.0718 44.946L8.50779 56.51ZM21.1038 43.914C25.3098 46.898 34.5538 52.426 37.4898 49.49C39.8558 47.124 36.2378 39.354 32.7918 32.226L21.1038 43.914ZM30.9218 11.676C29.9258 11.676 29.0918 11.924 28.5078 12.508C26.1438 14.874 29.7618 22.646 33.2058 29.774L44.8958 18.086C41.5278 15.696 34.9238 11.676 30.9218 11.676Z" fill="url(#paint0_linear)"/>
<defs>
<linearGradient id="paint0_linear" x1="31.6398" y1="2" x2="31.6398" y2="62.72" gradientUnits="userSpaceOnUse">
<stop stop-color="#986EE2"/>
<stop offset="1" stop-color="#E5534B"/>
</linearGradient>
</defs>
</svg>
