<svg width="2091" height="1667" viewBox="0 0 2091 1667" fill="none" xmlns="http://www.w3.org/2000/svg">
<path d="M1320.38 1666.68L780.454 1659.77L782.03 1645.92L808.149 1417.46H1282.32L1317.2 1645.92L1319.87 1663.23L1320.38 1666.68Z" fill="#2F2F34"/>
<path opacity="0.1" d="M1319.87 1663.23H1050.4L780.454 1659.77L782.03 1645.92H1317.2L1319.87 1663.23Z" fill="black"/>
<path d="M1406.92 1649.38H690.461V1666.68H1406.92V1649.38Z" fill="#2F2F34"/>
<path d="M2090.5 45.274C2090.53 39.3563 2089.39 33.4911 2087.15 28.0133C2084.91 22.5355 2081.62 17.5522 2077.46 13.3481C2073.29 9.14406 2068.34 5.80147 2062.88 3.51119C2057.43 1.22091 2051.57 0.0277914 2045.66 0H44.8455C38.9285 0.0277914 33.0749 1.22091 27.6189 3.51119C22.163 5.80147 17.2116 9.14406 13.0473 13.3481C8.88306 17.5522 5.58756 22.5355 3.34899 28.0133C1.11041 33.4911 -0.027418 39.3563 0.000501614 45.274V1258.22H2090.5V45.274Z" fill="#2F2F34" fill-opacity="0.95"/>
<path d="M0.000488281 1246.12V1388.19C0.000488281 1400.08 4.72527 1411.49 13.1353 1419.9C21.5454 1428.31 32.9519 1433.04 44.8455 1433.04H2045.66C2057.55 1433.04 2068.96 1428.31 2077.37 1419.9C2085.78 1411.49 2090.5 1400.08 2090.5 1388.19V1246.12H0.000488281Z" fill="#2F2F34"/>
<path d="M2014.33 76.1536H86.5088V1166.52H2014.33V76.1536Z" fill="#2F2F34"/>
<path opacity="0.1" d="M1102.34 1433.04L1317.74 1649.38L1284.69 1433.04H1102.34Z" fill="black"/>
<path opacity="0.3" d="M227.504 398.764H163.418V418.219H227.504V398.764Z" fill="#00BFA6" fill-opacity="0.08"/>
<path opacity="0.3" d="M1937.52 399.34H1873.43V418.795H1937.52V399.34Z" fill="#00BFA6" fill-opacity="0.08"/>
<path opacity="0.3" d="M228.079 535.525H163.994V554.98H228.079V535.525Z" fill="#00BFA6" fill-opacity="0.08"/>
<path opacity="0.3" d="M228.655 672.286H164.569V691.741H228.655V672.286Z" fill="#00BFA6" fill-opacity="0.08"/>
<path opacity="0.3" d="M229.231 809.017H165.145V828.473H229.231V809.017Z" fill="#00BFA6" fill-opacity="0.08"/>
<g opacity="0.2">
<path opacity="0.2" d="M245.684 408.128H227.504V408.885H245.684V408.128Z" fill="#F2F2F2"/>
<path opacity="0.2" d="M1818.38 408.885H1782.65V408.128H1818.38V408.885ZM1746.9 408.885H1711.17V408.128H1746.9V408.885ZM1675.42 408.885H1639.66V408.128H1675.42V408.885ZM1603.94 408.885H1568.19V408.128H1603.94V408.885ZM1532.46 408.885H1496.71V408.128H1532.46V408.885ZM1460.95 408.885H1425.23V408.128H1460.95V408.885ZM1389.47 408.885H1353.72V408.128H1389.47V408.885ZM1317.99 408.885H1282.24V408.128H1317.99V408.885ZM1246.51 408.885H1210.76V408.128H1246.51V408.885ZM1175 408.885H1139.28V408.128H1175V408.885ZM1103.53 408.885H1067.77V408.128H1103.53V408.885ZM1032.05 408.885H996.292V408.128H1032.05V408.885ZM960.567 408.885H924.812V408.128H960.567V408.885ZM889.058 408.885H853.333V408.128H889.058V408.885ZM817.578 408.885H781.854V408.128H817.578V408.885ZM746.099 408.885H710.466V408.128H746.22L746.099 408.885ZM674.62 408.885H638.865V408.128H674.62V408.885ZM603.111 408.885H567.386V408.128H603.111V408.885ZM531.631 408.885H495.907V408.128H531.692L531.631 408.885ZM460.152 408.885H424.397V408.128H460.152V408.885ZM388.673 408.885H352.918V408.128H388.673V408.885ZM317.163 408.885H281.439V408.128H317.163V408.885Z" fill="#F2F2F2"/>
<path opacity="0.2" d="M1872.31 408.128H1854.13V408.885H1872.31V408.128Z" fill="#F2F2F2"/>
<path opacity="0.2" d="M245.684 408.128H227.504V408.885H245.684V408.128Z" fill="#F2F2F2"/>
<path opacity="0.2" d="M1818.38 408.885H1782.65V408.128H1818.38V408.885ZM1746.9 408.885H1711.17V408.128H1746.9V408.885ZM1675.42 408.885H1639.66V408.128H1675.42V408.885ZM1603.94 408.885H1568.19V408.128H1603.94V408.885ZM1532.46 408.885H1496.71V408.128H1532.46V408.885ZM1460.95 408.885H1425.23V408.128H1460.95V408.885ZM1389.47 408.885H1353.72V408.128H1389.47V408.885ZM1317.99 408.885H1282.24V408.128H1317.99V408.885ZM1246.51 408.885H1210.76V408.128H1246.51V408.885ZM1175 408.885H1139.28V408.128H1175V408.885ZM1103.53 408.885H1067.77V408.128H1103.53V408.885ZM1032.05 408.885H996.292V408.128H1032.05V408.885ZM960.567 408.885H924.812V408.128H960.567V408.885ZM889.058 408.885H853.333V408.128H889.058V408.885ZM817.578 408.885H781.854V408.128H817.578V408.885ZM746.099 408.885H710.466V408.128H746.22L746.099 408.885ZM674.62 408.885H638.865V408.128H674.62V408.885ZM603.111 408.885H567.386V408.128H603.111V408.885ZM531.631 408.885H495.907V408.128H531.692L531.631 408.885ZM460.152 408.885H424.397V408.128H460.152V408.885ZM388.673 408.885H352.918V408.128H388.673V408.885ZM317.163 408.885H281.439V408.128H317.163V408.885Z" fill="#F2F2F2"/>
<path opacity="0.2" d="M1872.31 408.128H1854.13V408.885H1872.31V408.128Z" fill="#F2F2F2"/>
</g>
<path opacity="0.3" d="M227.504 262.397H163.418V281.852H227.504V262.397Z" fill="#00BFA6" fill-opacity="0.08"/>
<path opacity="0.3" d="M1937.52 262.972H1873.43V282.427H1937.52V262.972Z" fill="#00BFA6" fill-opacity="0.08"/>
<g opacity="0.2">
<path opacity="0.2" d="M245.684 271.76H227.504V272.518H245.684V271.76Z" fill="#F2F2F2"/>
<path opacity="0.2" d="M1818.38 272.518H1782.65V271.76H1818.38V272.518ZM1746.9 272.518H1711.17V271.76H1746.9V272.518ZM1675.42 272.518H1639.66V271.76H1675.42V272.518ZM1603.94 272.518H1568.19V271.76H1603.94V272.518ZM1532.46 272.518H1496.71V271.76H1532.46V272.518ZM1460.95 272.518H1425.23V271.76H1460.95V272.518ZM1389.47 272.518H1353.72V271.76H1389.47V272.518ZM1317.99 272.518H1282.24V271.76H1317.99V272.518ZM1246.51 272.518H1210.76V271.76H1246.51V272.518ZM1175 272.518H1139.28V271.76H1175V272.518ZM1103.53 272.518H1067.77V271.76H1103.53V272.518ZM1032.05 272.518H996.292V271.76H1032.05V272.518ZM960.567 272.518H924.812V271.76H960.567V272.518ZM889.058 272.518H853.333V271.76H889.058V272.518ZM817.578 272.518H781.854V271.76H817.578V272.518ZM746.099 272.518H710.466V271.76H746.22L746.099 272.518ZM674.62 272.518H638.865V271.76H674.62V272.518ZM603.111 272.518H567.386V271.76H603.111V272.518ZM531.631 272.518H495.907V271.76H531.692L531.631 272.518ZM460.152 272.518H424.397V271.76H460.152V272.518ZM388.673 272.518H352.918V271.76H388.673V272.518ZM317.163 272.518H281.439V271.76H317.163V272.518Z" fill="#F2F2F2"/>
<path opacity="0.2" d="M1872.31 271.76H1854.13V272.518H1872.31V271.76Z" fill="#F2F2F2"/>
</g>
<path opacity="0.3" d="M1937.52 535.525H1873.43V554.98H1937.52V535.525Z" fill="#00BFA6" fill-opacity="0.08"/>
<g opacity="0.2">
<path opacity="0.2" d="M245.684 544.313H227.504V545.071H245.684V544.313Z" fill="#F2F2F2"/>
<path opacity="0.2" d="M1818.38 545.041H1782.65V544.283H1818.38V545.041ZM1746.9 545.041H1711.17V544.283H1746.9V545.041ZM1675.42 545.041H1639.66V544.283H1675.42V545.041ZM1603.94 545.041H1568.19V544.283H1603.94V545.041ZM1532.46 545.041H1496.71V544.283H1532.46V545.041ZM1460.95 545.041H1425.23V544.283H1460.95V545.041ZM1389.47 545.041H1353.72V544.283H1389.47V545.041ZM1317.99 545.041H1282.24V544.283H1317.99V545.041ZM1246.51 545.041H1210.76V544.283H1246.51V545.041ZM1175 545.041H1139.28V544.283H1175V545.041ZM1103.53 545.041H1067.77V544.283H1103.53V545.041ZM1032.05 545.041H996.292V544.283H1032.05V545.041ZM960.567 545.041H924.812V544.283H960.567V545.041ZM889.058 545.041H853.333V544.283H889.058V545.041ZM817.578 545.041H781.854V544.283H817.578V545.041ZM746.099 545.041H710.466V544.283H746.22L746.099 545.041ZM674.62 545.041H638.865V544.283H674.62V545.041ZM603.111 545.041H567.386V544.283H603.111V545.041ZM531.631 545.041H495.907V544.283H531.692L531.631 545.041ZM460.152 545.041H424.397V544.283H460.152V545.041ZM388.673 545.041H352.918V544.283H388.673V545.041ZM317.163 545.041H281.439V544.283H317.163V545.041Z" fill="#F2F2F2"/>
<path opacity="0.2" d="M1872.31 544.313H1854.13V545.071H1872.31V544.313Z" fill="#F2F2F2"/>
<path opacity="0.2" d="M245.684 544.313H227.504V545.071H245.684V544.313Z" fill="#F2F2F2"/>
<path opacity="0.2" d="M1818.38 545.041H1782.65V544.283H1818.38V545.041ZM1746.9 545.041H1711.17V544.283H1746.9V545.041ZM1675.42 545.041H1639.66V544.283H1675.42V545.041ZM1603.94 545.041H1568.19V544.283H1603.94V545.041ZM1532.46 545.041H1496.71V544.283H1532.46V545.041ZM1460.95 545.041H1425.23V544.283H1460.95V545.041ZM1389.47 545.041H1353.72V544.283H1389.47V545.041ZM1317.99 545.041H1282.24V544.283H1317.99V545.041ZM1246.51 545.041H1210.76V544.283H1246.51V545.041ZM1175 545.041H1139.28V544.283H1175V545.041ZM1103.53 545.041H1067.77V544.283H1103.53V545.041ZM1032.05 545.041H996.292V544.283H1032.05V545.041ZM960.567 545.041H924.812V544.283H960.567V545.041ZM889.058 545.041H853.333V544.283H889.058V545.041ZM817.578 545.041H781.854V544.283H817.578V545.041ZM746.099 545.041H710.466V544.283H746.22L746.099 545.041ZM674.62 545.041H638.865V544.283H674.62V545.041ZM603.111 545.041H567.386V544.283H603.111V545.041ZM531.631 545.041H495.907V544.283H531.692L531.631 545.041ZM460.152 545.041H424.397V544.283H460.152V545.041ZM388.673 545.041H352.918V544.283H388.673V545.041ZM317.163 545.041H281.439V544.283H317.163V545.041Z" fill="#F2F2F2"/>
<path opacity="0.2" d="M1872.31 544.313H1854.13V545.071H1872.31V544.313Z" fill="#F2F2F2"/>
</g>
<path opacity="0.3" d="M1937.52 671.711H1873.43V691.166H1937.52V671.711Z" fill="#00BFA6" fill-opacity="0.08"/>
<g opacity="0.2">
<path opacity="0.2" d="M245.684 680.468H227.504V681.226H245.684V680.468Z" fill="#F2F2F2"/>
<path opacity="0.2" d="M1818.38 681.226H1782.65V680.468H1818.38V681.226ZM1746.9 681.226H1711.17V680.468H1746.9V681.226ZM1675.42 681.226H1639.66V680.468H1675.42V681.226ZM1603.94 681.226H1568.19V680.468H1603.94V681.226ZM1532.46 681.226H1496.71V680.468H1532.46V681.226ZM1460.95 681.226H1425.23V680.468H1460.95V681.226ZM1389.47 681.226H1353.72V680.468H1389.47V681.226ZM1317.99 681.226H1282.24V680.468H1317.99V681.226ZM1246.51 681.226H1210.76V680.468H1246.51V681.226ZM1175 681.226H1139.28V680.468H1175V681.226ZM1103.53 681.226H1067.77V680.468H1103.53V681.226ZM1032.05 681.226H996.292V680.468H1032.05V681.226ZM960.567 681.226H924.812V680.468H960.567V681.226ZM889.058 681.226H853.333V680.468H889.058V681.226ZM817.578 681.226H781.854V680.468H817.578V681.226ZM746.099 681.226H710.466V680.468H746.22L746.099 681.226ZM674.62 681.226H638.865V680.468H674.62V681.226ZM603.111 681.226H567.386V680.468H603.111V681.226ZM531.631 681.226H495.907V680.468H531.692L531.631 681.226ZM460.152 681.226H424.397V680.468H460.152V681.226ZM388.673 681.226H352.918V680.468H388.673V681.226ZM317.163 681.226H281.439V680.468H317.163V681.226Z" fill="#F2F2F2"/>
<path opacity="0.2" d="M1872.31 680.468H1854.13V681.226H1872.31V680.468Z" fill="#F2F2F2"/>
<path opacity="0.2" d="M245.684 680.468H227.504V681.226H245.684V680.468Z" fill="#F2F2F2"/>
<path opacity="0.2" d="M1818.38 681.226H1782.65V680.468H1818.38V681.226ZM1746.9 681.226H1711.17V680.468H1746.9V681.226ZM1675.42 681.226H1639.66V680.468H1675.42V681.226ZM1603.94 681.226H1568.19V680.468H1603.94V681.226ZM1532.46 681.226H1496.71V680.468H1532.46V681.226ZM1460.95 681.226H1425.23V680.468H1460.95V681.226ZM1389.47 681.226H1353.72V680.468H1389.47V681.226ZM1317.99 681.226H1282.24V680.468H1317.99V681.226ZM1246.51 681.226H1210.76V680.468H1246.51V681.226ZM1175 681.226H1139.28V680.468H1175V681.226ZM1103.53 681.226H1067.77V680.468H1103.53V681.226ZM1032.05 681.226H996.292V680.468H1032.05V681.226ZM960.567 681.226H924.812V680.468H960.567V681.226ZM889.058 681.226H853.333V680.468H889.058V681.226ZM817.578 681.226H781.854V680.468H817.578V681.226ZM746.099 681.226H710.466V680.468H746.22L746.099 681.226ZM674.62 681.226H638.865V680.468H674.62V681.226ZM603.111 681.226H567.386V680.468H603.111V681.226ZM531.631 681.226H495.907V680.468H531.692L531.631 681.226ZM460.152 681.226H424.397V680.468H460.152V681.226ZM388.673 681.226H352.918V680.468H388.673V681.226ZM317.163 681.226H281.439V680.468H317.163V681.226Z" fill="#F2F2F2"/>
<path opacity="0.2" d="M1872.31 680.468H1854.13V681.226H1872.31V680.468Z" fill="#F2F2F2"/>
</g>
<path opacity="0.3" d="M1937.52 807.866H1873.43V827.321H1937.52V807.866Z" fill="#00BFA6" fill-opacity="0.08"/>
<g opacity="0.2">
<path opacity="0.2" d="M245.684 816.654H227.504V817.412H245.684V816.654Z" fill="#F2F2F2"/>
<path opacity="0.2" d="M1818.38 817.412H1782.65V816.654H1818.38V817.412ZM1746.9 817.412H1711.17V816.654H1746.9V817.412ZM1675.42 817.412H1639.66V816.654H1675.42V817.412ZM1603.94 817.412H1568.19V816.654H1603.94V817.412ZM1532.46 817.412H1496.71V816.654H1532.46V817.412ZM1460.95 817.412H1425.23V816.654H1460.95V817.412ZM1389.47 817.412H1353.72V816.654H1389.47V817.412ZM1317.99 817.412H1282.24V816.654H1317.99V817.412ZM1246.51 817.412H1210.76V816.654H1246.51V817.412ZM1175 817.412H1139.28V816.654H1175V817.412ZM1103.53 817.412H1067.77V816.654H1103.53V817.412ZM1032.05 817.412H996.292V816.654H1032.05V817.412ZM960.567 817.412H924.812V816.654H960.567V817.412ZM889.058 817.412H853.333V816.654H889.058V817.412ZM817.578 817.412H781.854V816.654H817.578V817.412ZM746.099 817.412H710.466V816.654H746.22L746.099 817.412ZM674.62 817.412H638.865V816.654H674.62V817.412ZM603.111 817.412H567.386V816.654H603.111V817.412ZM531.631 817.412H495.907V816.654H531.692L531.631 817.412ZM460.152 817.412H424.397V816.654H460.152V817.412ZM388.673 817.412H352.918V816.654H388.673V817.412ZM317.163 817.412H281.439V816.654H317.163V817.412Z" fill="#F2F2F2"/>
<path opacity="0.2" d="M1872.31 816.654H1854.13V817.412H1872.31V816.654Z" fill="#F2F2F2"/>
<path opacity="0.2" d="M245.684 816.654H227.504V817.412H245.684V816.654Z" fill="#F2F2F2"/>
<path opacity="0.2" d="M1818.38 817.412H1782.65V816.654H1818.38V817.412ZM1746.9 817.412H1711.17V816.654H1746.9V817.412ZM1675.42 817.412H1639.66V816.654H1675.42V817.412ZM1603.94 817.412H1568.19V816.654H1603.94V817.412ZM1532.46 817.412H1496.71V816.654H1532.46V817.412ZM1460.95 817.412H1425.23V816.654H1460.95V817.412ZM1389.47 817.412H1353.72V816.654H1389.47V817.412ZM1317.99 817.412H1282.24V816.654H1317.99V817.412ZM1246.51 817.412H1210.76V816.654H1246.51V817.412ZM1175 817.412H1139.28V816.654H1175V817.412ZM1103.53 817.412H1067.77V816.654H1103.53V817.412ZM1032.05 817.412H996.292V816.654H1032.05V817.412ZM960.567 817.412H924.812V816.654H960.567V817.412ZM889.058 817.412H853.333V816.654H889.058V817.412ZM817.578 817.412H781.854V816.654H817.578V817.412ZM746.099 817.412H710.466V816.654H746.22L746.099 817.412ZM674.62 817.412H638.865V816.654H674.62V817.412ZM603.111 817.412H567.386V816.654H603.111V817.412ZM531.631 817.412H495.907V816.654H531.692L531.631 817.412ZM460.152 817.412H424.397V816.654H460.152V817.412ZM388.673 817.412H352.918V816.654H388.673V817.412ZM317.163 817.412H281.439V816.654H317.163V817.412Z" fill="#F2F2F2"/>
<path opacity="0.2" d="M1872.31 816.654H1854.13V817.412H1872.31V816.654Z" fill="#F2F2F2"/>
</g>
<path d="M436.427 272.7V818.745" stroke="#F2F2F2" stroke-width="0.1" stroke-miterlimit="10"/>
<path d="M657.621 272.7V818.745" stroke="#F2F2F2" stroke-width="0.1" stroke-miterlimit="10"/>
<path d="M878.816 272.7V818.745" stroke="#F2F2F2" stroke-width="0.1" stroke-miterlimit="10"/>
<path d="M1100.01 272.7V818.745" stroke="#F2F2F2" stroke-width="0.1" stroke-miterlimit="10"/>
<path d="M1321.21 272.7V818.745" stroke="#F2F2F2" stroke-width="0.1" stroke-miterlimit="10"/>
<path d="M1542.4 272.7V818.745" stroke="#F2F2F2" stroke-width="0.1" stroke-miterlimit="10"/>
<path d="M1763.59 272.7V818.745" stroke="#F2F2F2" stroke-width="0.1" stroke-miterlimit="10"/>
<path opacity="0.3" d="M1811.44 235.85L1786.14 262.215C1785.63 262.766 1785.2 263.388 1784.87 264.063L1769.17 296.397C1768.54 297.696 1767.54 298.776 1766.29 299.496C1765.04 300.215 1763.61 300.54 1762.17 300.428L1757.14 300.034C1755.68 299.93 1754.29 299.38 1753.15 298.459C1752.01 297.538 1751.18 296.289 1750.78 294.882L1745.93 278.094C1745.51 276.626 1744.63 275.331 1743.42 274.397C1742.21 273.464 1740.73 272.94 1739.2 272.903C1737.68 272.866 1736.18 273.317 1734.92 274.19C1733.67 275.064 1732.73 276.315 1732.23 277.761L1724.08 301.64C1723.6 303.065 1722.68 304.302 1721.46 305.178C1720.24 306.053 1718.77 306.522 1717.26 306.519H1686.15C1684.44 306.512 1682.79 305.899 1681.49 304.789C1680.19 303.679 1679.33 302.145 1679.06 300.458L1670.27 245.457C1670.03 243.952 1669.33 242.561 1668.25 241.484C1667.18 240.407 1665.79 239.699 1664.29 239.463C1662.78 239.227 1661.24 239.475 1659.89 240.171C1658.53 240.867 1657.44 241.975 1656.75 243.335L1611.7 332.277C1611.23 333.198 1610.57 334.008 1609.77 334.652C1608.96 335.296 1608.03 335.758 1607.03 336.008C1606.03 336.259 1604.98 336.29 1603.97 336.101C1602.96 335.913 1602 335.507 1601.15 334.914L1574.37 316.004C1572.91 314.978 1571.12 314.528 1569.34 314.74C1567.57 314.953 1565.94 315.813 1564.76 317.156L1554.61 328.883C1554.31 329.23 1554.05 329.605 1553.82 330.004L1526.73 376.884C1526.05 378.086 1525.03 379.061 1523.79 379.691C1522.56 380.32 1521.17 380.577 1519.8 380.43L1503.28 378.794C1502.13 378.681 1500.96 378.848 1499.89 379.279L1485.1 385.188C1483.39 385.834 1481.49 385.801 1479.8 385.097C1478.11 384.393 1476.76 383.071 1476.01 381.4L1472.77 373.975C1472.18 372.646 1471.21 371.524 1469.98 370.756C1468.75 369.988 1467.31 369.61 1465.86 369.672L1448.95 370.46C1447.91 370.504 1446.88 370.78 1445.95 371.267C1445.03 371.755 1444.22 372.441 1443.59 373.278L1438.8 379.521C1438.01 380.55 1436.96 381.348 1435.76 381.828C1434.55 382.308 1433.24 382.453 1431.96 382.248C1430.68 382.043 1429.48 381.495 1428.49 380.663C1427.49 379.831 1426.74 378.745 1426.32 377.521L1420.26 360.399C1419.88 359.334 1419.26 358.372 1418.45 357.591C1417.63 356.81 1416.65 356.232 1415.57 355.904C1414.49 355.577 1413.34 355.508 1412.23 355.705C1411.12 355.901 1410.07 356.357 1409.17 357.035L1380.38 378.612L1348.57 404.279C1347.48 405.152 1346.16 405.692 1344.77 405.831C1343.39 405.971 1341.99 405.706 1340.75 405.067L1316.05 392.249C1314.73 391.569 1313.23 391.316 1311.75 391.521L1261.72 398.521C1260.27 398.717 1258.92 399.35 1257.84 400.335C1256.75 401.32 1256 402.611 1255.66 404.037L1246.79 442.614C1246.51 443.817 1245.93 444.929 1245.1 445.842C1244.26 446.755 1243.21 447.437 1242.04 447.824C1240.87 448.211 1239.61 448.289 1238.4 448.05C1237.19 447.812 1236.06 447.265 1235.12 446.462V446.462C1234.29 445.753 1233.31 445.242 1232.25 444.968C1231.19 444.694 1230.09 444.664 1229.02 444.879C1227.94 445.095 1226.94 445.552 1226.07 446.215C1225.2 446.877 1224.49 447.729 1224 448.705L1217.18 462.372C1216.67 463.382 1215.93 464.258 1215.02 464.932C1214.11 465.605 1213.06 466.057 1211.94 466.251L1196.46 468.826C1195.46 469 1194.51 469.382 1193.67 469.948L1169.28 486.19C1168.1 486.98 1166.72 487.402 1165.31 487.403H1153.89C1152.48 487.405 1151.11 486.996 1149.93 486.226C1148.76 485.456 1147.84 484.358 1147.28 483.069L1144.25 475.827C1143.86 474.949 1143.31 474.157 1142.61 473.498C1141.91 472.839 1141.09 472.327 1140.19 471.991C1139.29 471.654 1138.34 471.502 1137.38 471.541C1136.42 471.581 1135.48 471.812 1134.61 472.22L1108.13 484.615C1107.06 485.116 1105.89 485.348 1104.71 485.29C1103.53 485.232 1102.39 484.885 1101.37 484.281L1089.25 476.978C1088.14 476.308 1086.86 475.953 1085.56 475.948H1058.8C1057.39 475.952 1056.01 476.374 1054.83 477.16L1028.14 494.888C1027.11 495.571 1025.92 495.977 1024.69 496.067C1023.46 496.157 1022.22 495.929 1021.11 495.403L1008.99 489.675C1007.58 489.015 1005.99 488.833 1004.46 489.155C1002.94 489.478 1001.56 490.288 1000.53 491.463L994.776 498.039C994.023 498.911 993.071 499.587 992 500.011C990.93 500.435 989.773 500.595 988.627 500.476C987.482 500.357 986.382 499.963 985.422 499.328C984.461 498.692 983.668 497.835 983.111 496.827L981.383 493.797C980.915 492.96 980.284 492.225 979.527 491.635C978.77 491.046 977.903 490.615 976.977 490.366C976.05 490.117 975.084 490.057 974.134 490.188C973.183 490.319 972.269 490.64 971.445 491.13L950.447 503.585C949.358 504.21 948.126 504.538 946.871 504.538C945.616 504.538 944.384 504.21 943.296 503.585L934.63 498.767C933.651 498.216 932.557 497.904 931.435 497.856C930.314 497.809 929.197 498.027 928.175 498.494L919.934 502.251C919.007 502.667 918.003 502.883 916.987 502.885C915.971 502.887 914.966 502.676 914.038 502.264C913.109 501.853 912.277 501.251 911.596 500.497C910.916 499.742 910.401 498.854 910.086 497.888L904.753 482.009C904.298 480.551 903.387 479.278 902.154 478.378C900.921 477.478 899.432 476.998 897.905 477.008H890.148C888.927 477.013 887.727 476.7 886.664 476.099L856.878 459.766C855.665 459.11 854.29 458.816 852.915 458.918C851.541 459.02 850.224 459.514 849.121 460.341L827.274 476.705C826.034 477.636 824.523 478.136 822.972 478.13H795.489C794.075 478.131 792.693 478.553 791.52 479.342L786.369 482.766C785.521 483.334 784.562 483.715 783.556 483.884C782.55 484.052 781.52 484.004 780.534 483.744C779.547 483.483 778.628 483.015 777.837 482.371C777.046 481.726 776.401 480.921 775.945 480.008L774.703 477.554C774.113 476.353 773.199 475.341 772.063 474.634C770.928 473.927 769.617 473.553 768.279 473.554H754.492C753.398 473.556 752.318 473.808 751.336 474.291C750.354 474.775 749.496 475.476 748.826 476.342L740.281 487.281C739.573 488.189 738.657 488.912 737.611 489.392C736.565 489.871 735.418 490.091 734.269 490.035C733.119 489.978 732 489.647 731.006 489.067C730.012 488.488 729.171 487.678 728.555 486.706L726.131 482.918C725.131 481.331 723.549 480.201 721.724 479.77C719.899 479.339 717.978 479.643 716.374 480.615L709.284 484.857C708.077 485.579 706.685 485.932 705.28 485.873C703.875 485.813 702.517 485.344 701.375 484.524L672.802 463.826C672.291 463.465 671.742 463.16 671.166 462.917L648.834 454.341C647.095 453.708 645.18 453.771 643.486 454.516C641.793 455.262 640.452 456.632 639.744 458.341L624.2 496.221C623.974 496.754 623.822 497.314 623.745 497.888L618.715 532.01C618.493 533.453 617.838 534.795 616.837 535.858L606.201 547.283C605.098 548.448 603.64 549.214 602.056 549.461C600.471 549.708 598.849 549.421 597.444 548.647L578.991 538.404C578.073 537.89 577.053 537.584 576.004 537.507C574.954 537.431 573.901 537.586 572.918 537.962C571.935 538.338 571.047 538.925 570.316 539.682C569.585 540.44 569.03 541.348 568.689 542.344L556.993 576.557C556.728 577.306 556.594 578.095 556.599 578.89V600.466C556.596 601.865 556.184 603.233 555.414 604.401C554.644 605.569 553.55 606.487 552.266 607.042L533.51 615.345C532.468 615.795 531.334 615.99 530.202 615.917C529.069 615.843 527.97 615.502 526.995 614.921L512.875 606.618C511.468 605.794 509.822 605.473 508.209 605.709L483.453 609.254C482.037 609.457 480.594 609.23 479.308 608.604C478.023 607.977 476.954 606.979 476.242 605.739L472.06 598.587C471.158 597.045 469.708 595.899 468 595.375L456.758 591.86C455.448 591.443 454.045 591.412 452.717 591.772C451.39 592.133 450.194 592.868 449.274 593.89L433.669 611.224C432.438 612.584 430.739 613.428 428.912 613.588L405.884 615.527C404.816 615.587 403.778 615.899 402.854 616.436L362.705 639.528C361.452 640.239 360.014 640.559 358.578 640.446C357.141 640.332 355.771 639.791 354.645 638.892L343.252 629.8C341.976 628.788 340.397 628.233 338.768 628.225H295.62C294.542 628.229 293.478 627.988 292.507 627.521C291.536 627.053 290.683 626.372 290.014 625.528L279.136 611.951C278.484 611.14 277.664 610.48 276.731 610.017C275.799 609.554 274.777 609.299 273.737 609.271C272.696 609.242 271.662 609.44 270.706 609.85C269.749 610.261 268.893 610.874 268.198 611.648L255.108 626.194C253.923 627.508 253.265 629.213 253.259 630.982V811.714C253.259 813.619 254.016 815.446 255.363 816.793C256.709 818.14 258.536 818.896 260.441 818.896H1817.07C1818.02 818.896 1818.96 818.71 1819.83 818.347C1820.7 817.984 1821.5 817.452 1822.16 816.782C1822.83 816.112 1823.36 815.317 1823.72 814.442C1824.08 813.567 1824.26 812.63 1824.26 811.684L1823.83 240.972C1823.85 239.526 1823.44 238.108 1822.64 236.901C1821.85 235.693 1820.71 234.752 1819.37 234.2C1818.04 233.648 1816.57 233.51 1815.15 233.805C1813.74 234.099 1812.44 234.812 1811.44 235.85V235.85Z" fill="#00BFA6" fill-opacity="0.08"/>
<path opacity="0.3" d="M1810.05 469.887L1786.59 485.524C1785.77 486.078 1785.04 486.764 1784.44 487.554L1769.87 506.797C1768.98 507.937 1767.84 508.851 1766.53 509.462C1765.23 510.073 1763.79 510.365 1762.35 510.312L1757.59 510.07C1755.96 509.988 1754.38 509.459 1753.03 508.539C1751.68 507.62 1750.61 506.346 1749.93 504.858L1746.9 498.403C1746.22 496.887 1745.13 495.592 1743.75 494.666C1742.38 493.74 1740.77 493.22 1739.11 493.166C1737.45 493.113 1735.81 493.527 1734.37 494.362C1732.94 495.197 1731.76 496.418 1730.99 497.888L1724.93 509.494C1724.17 510.918 1723.04 512.108 1721.66 512.935C1720.28 513.763 1718.69 514.197 1717.08 514.191H1687.02C1685.04 514.2 1683.12 513.541 1681.55 512.32C1679.99 511.1 1678.89 509.389 1678.42 507.464L1671.21 478.584C1670.81 476.974 1669.96 475.51 1668.77 474.355C1667.58 473.201 1666.09 472.404 1664.47 472.053C1662.85 471.703 1661.16 471.814 1659.6 472.374C1658.04 472.934 1656.66 473.92 1655.63 475.22L1612.3 530.01C1611.08 531.567 1609.37 532.668 1607.45 533.136C1605.52 533.603 1603.5 533.409 1601.7 532.586L1573.85 520.009C1572.39 519.327 1570.78 519.054 1569.18 519.22C1567.58 519.385 1566.05 519.983 1564.76 520.949L1554.79 528.313C1554.32 528.669 1553.88 529.075 1553.49 529.525L1527.19 558.647C1526.3 559.661 1525.2 560.461 1523.96 560.986C1522.72 561.511 1521.38 561.747 1520.04 561.677L1502.86 560.586C1501.92 560.53 1500.98 560.612 1500.07 560.829L1484.59 564.799C1482.82 565.26 1480.96 565.163 1479.25 564.523C1477.54 563.883 1476.07 562.73 1475.04 561.223L1473.28 558.617C1472.44 557.393 1471.31 556.399 1469.99 555.727C1468.66 555.055 1467.19 554.725 1465.71 554.768L1448.44 555.283C1446.44 555.316 1444.53 556.045 1443.01 557.344L1438.77 560.889C1437.77 561.733 1436.59 562.343 1435.32 562.676C1434.05 563.01 1432.72 563.058 1431.44 562.817C1430.15 562.577 1428.93 562.054 1427.86 561.285C1426.8 560.517 1425.92 559.523 1425.29 558.374L1420.8 550.253C1419.71 548.267 1417.9 546.776 1415.74 546.083C1413.58 545.39 1411.24 545.548 1409.2 546.525L1380.14 560.495L1347.99 577.102C1346.94 577.642 1345.8 577.965 1344.62 578.054C1343.44 578.142 1342.26 577.994 1341.14 577.617L1315.54 569.132C1314.39 568.754 1313.17 568.609 1311.96 568.708L1262.39 572.92C1260.71 573.094 1259.11 573.733 1257.77 574.767C1256.43 575.8 1255.41 577.186 1254.82 578.769L1247.64 598.83C1247.2 600.035 1246.51 601.132 1245.61 602.046C1244.72 602.96 1243.63 603.669 1242.43 604.124C1241.24 604.578 1239.95 604.769 1238.68 604.681C1237.4 604.594 1236.15 604.231 1235.03 603.618L1234.73 603.466C1232.89 602.445 1230.74 602.116 1228.68 602.539C1226.62 602.961 1224.78 604.107 1223.49 605.769L1217.85 612.982C1216.35 614.859 1214.17 616.069 1211.79 616.345L1196.28 618.012C1195.4 618.1 1194.54 618.314 1193.73 618.648L1169.16 629.164C1168.05 629.619 1166.87 629.855 1165.67 629.861H1153.85C1152.41 629.86 1150.99 629.507 1149.71 628.831C1148.43 628.155 1147.34 627.177 1146.52 625.982L1144.83 623.497C1143.76 621.944 1142.23 620.769 1140.45 620.142C1138.68 619.516 1136.75 619.47 1134.95 620.012L1107.4 628.346C1105.51 628.915 1103.49 628.84 1101.65 628.134L1088.86 623.224C1087.89 622.844 1086.87 622.638 1085.83 622.618H1058.38C1057.19 622.617 1056.01 622.865 1054.92 623.346L1027.65 634.922C1025.74 635.749 1023.59 635.867 1021.59 635.255L1008.11 631.225C1006.8 630.833 1005.41 630.749 1004.06 630.981C1002.71 631.212 1001.43 631.752 1000.32 632.558L994.413 636.891C992.624 638.2 990.41 638.792 988.206 638.551C986.002 638.31 983.969 637.253 982.505 635.588L981.626 634.588C980.434 633.228 978.856 632.264 977.101 631.825C975.347 631.386 973.5 631.494 971.809 632.134L949.841 640.528C947.884 641.241 945.738 641.241 943.78 640.528L934.145 637.073C932.385 636.465 930.481 636.412 928.691 636.922L919.601 639.558C917.61 640.132 915.481 639.992 913.583 639.162C911.685 638.332 910.138 636.864 909.208 635.013L905.814 628.194C905.074 626.722 903.94 625.483 902.539 624.616C901.137 623.75 899.523 623.289 897.875 623.285H889.997C888.966 623.302 887.941 623.138 886.967 622.8L856.393 612.073C855.295 611.679 854.129 611.509 852.963 611.571C851.798 611.634 850.657 611.928 849.606 612.436L827.275 623.164C826.072 623.735 824.758 624.035 823.426 624.043H795.216C794.021 624.048 792.838 624.285 791.732 624.74L785.975 627.225C784.174 627.989 782.171 628.139 780.276 627.651C778.381 627.164 776.7 626.066 775.491 624.527V624.527C774.663 623.46 773.602 622.597 772.388 622.003C771.175 621.41 769.842 621.102 768.491 621.103H754.25C752.197 621.1 750.206 621.807 748.614 623.103L740.342 629.891C738.642 631.299 736.475 632.019 734.27 631.906C732.065 631.794 729.983 630.859 728.434 629.285L726.555 627.406C725.342 626.184 723.799 625.342 722.115 624.981C720.431 624.621 718.679 624.758 717.071 625.376L708.829 628.558C706.575 629.398 704.08 629.311 701.891 628.315L672.893 614.86C672.381 614.616 671.842 614.433 671.287 614.315L648.531 608.709C646.736 608.26 644.846 608.388 643.128 609.073C641.409 609.758 639.95 610.967 638.956 612.527L624.654 634.831C624.107 635.687 623.708 636.63 623.473 637.619L619.14 656.559C618.621 658.721 617.327 660.619 615.503 661.892L606.05 668.377C604.899 669.17 603.576 669.677 602.19 669.857C600.804 670.036 599.395 669.882 598.081 669.407L578.628 662.498C576.594 661.78 574.368 661.827 572.366 662.63C570.365 663.433 568.723 664.937 567.75 666.862L557.508 686.014C556.835 687.305 556.481 688.74 556.478 690.196V698.832C556.47 700.772 555.83 702.656 554.654 704.198C553.478 705.741 551.831 706.857 549.963 707.378L532.934 712.106C531.128 712.617 529.204 712.532 527.45 711.863L512.603 706.257C511.349 705.774 510.001 705.588 508.663 705.711L483.059 708.045C481.695 708.177 480.319 707.989 479.04 707.494C477.762 707 476.616 706.213 475.696 705.196L472.666 701.833C471.405 700.418 469.711 699.459 467.848 699.105L456.183 696.741C454.99 696.515 453.765 696.53 452.578 696.785C451.392 697.04 450.268 697.53 449.274 698.226L433.912 709.166C432.537 710.132 430.922 710.699 429.246 710.803L405.702 712.045C404.812 712.1 403.934 712.284 403.096 712.59L362.221 727.742C361.076 728.177 359.852 728.363 358.63 728.29C357.408 728.217 356.215 727.886 355.13 727.318L343.313 721.257C342.065 720.621 340.684 720.288 339.283 720.288H295.347C293.318 720.287 291.351 719.592 289.772 718.318L279.136 709.803C277.629 708.596 275.769 707.913 273.839 707.858C271.909 707.804 270.013 708.38 268.44 709.499L257.047 717.621C255.895 718.445 254.956 719.532 254.307 720.791C253.659 722.051 253.321 723.447 253.32 724.864V810.048C253.32 812.402 254.255 814.661 255.92 816.326C257.585 817.991 259.844 818.927 262.198 818.927H1815.38C1817.73 818.927 1819.99 817.991 1821.66 816.326C1823.32 814.661 1824.26 812.402 1824.26 810.048L1823.83 477.402C1823.85 475.787 1823.43 474.196 1822.62 472.802C1821.8 471.407 1820.62 470.262 1819.2 469.489C1817.79 468.716 1816.18 468.344 1814.57 468.414C1812.96 468.484 1811.39 468.994 1810.05 469.887V469.887Z" fill="#00BFA6" fill-opacity="0.08"/>
<path d="M1816.32 488.857C1828.03 488.857 1837.53 479.36 1837.53 467.644C1837.53 455.929 1828.03 446.432 1816.32 446.432C1804.6 446.432 1795.11 455.929 1795.11 467.644C1795.11 479.36 1804.6 488.857 1816.32 488.857Z" fill="#00BFA6" fill-opacity="0.08"/>
<path opacity="0.3" d="M1814.95 677.499L1786.14 687.105C1785.59 687.296 1785.06 687.55 1784.56 687.863L1768.75 698.318C1767.59 699.069 1766.24 699.45 1764.87 699.408L1755.02 699.166C1754.1 699.147 1753.2 698.941 1752.37 698.561C1751.53 698.18 1750.79 697.633 1750.17 696.954L1744.11 690.287C1743.51 689.621 1742.78 689.082 1741.97 688.701C1741.15 688.32 1740.27 688.105 1739.38 688.068C1738.48 688.031 1737.58 688.174 1736.74 688.487C1735.9 688.801 1735.13 689.279 1734.48 689.893L1724.26 699.469C1723.02 700.655 1721.37 701.317 1719.66 701.318H1684.27C1683.01 701.326 1681.77 700.977 1680.7 700.312C1679.62 699.648 1678.76 698.694 1678.21 697.56L1670.12 681.408C1669.7 680.565 1669.1 679.82 1668.37 679.221C1667.65 678.621 1666.8 678.18 1665.9 677.926C1664.99 677.672 1664.04 677.611 1663.11 677.746C1662.17 677.881 1661.28 678.21 1660.48 678.711L1610.39 710.439C1608.88 711.388 1607.05 711.704 1605.3 711.318L1571 703.59C1569.74 703.291 1568.41 703.375 1567.19 703.833L1554.67 708.469C1554.34 708.572 1554.03 708.715 1553.73 708.894L1526.07 724.227C1525 724.809 1523.8 725.102 1522.58 725.076L1502.1 724.409C1501.75 724.378 1501.39 724.378 1501.04 724.409L1481.34 726.924C1479.63 727.134 1477.9 726.69 1476.5 725.682L1472.5 722.651C1471.31 721.778 1469.88 721.32 1468.41 721.348L1446.8 721.651C1445.94 721.652 1445.08 721.827 1444.29 722.167L1434.59 726.258C1433.4 726.749 1432.1 726.893 1430.83 726.673C1429.57 726.453 1428.39 725.878 1427.44 725.015L1419.5 717.985C1418.69 717.256 1417.72 716.734 1416.66 716.465C1415.61 716.196 1414.5 716.187 1413.44 716.439L1380.29 724.439L1346.2 733.258C1345.28 733.455 1344.33 733.455 1343.42 733.258L1314.63 728.47C1314.17 728.44 1313.7 728.44 1313.24 728.47L1260 730.864C1258.98 730.909 1257.98 731.186 1257.08 731.675C1256.18 732.163 1255.41 732.849 1254.82 733.682L1246.79 744.743C1245.99 745.867 1244.86 746.716 1243.56 747.177C1242.26 747.638 1240.84 747.687 1239.51 747.319L1230.94 744.955C1230.03 744.715 1229.07 744.666 1228.14 744.812C1227.21 744.958 1226.31 745.296 1225.52 745.804L1216.94 751.289C1215.95 751.901 1214.83 752.255 1213.67 752.319L1195.49 753.319C1195.15 753.29 1194.8 753.29 1194.46 753.319L1168.22 758.925C1167.75 759.021 1167.27 759.071 1166.79 759.077H1151.4C1149.97 759.077 1148.58 758.62 1147.43 757.774L1143.43 754.743C1142.73 754.217 1141.92 753.836 1141.07 753.623C1140.22 753.41 1139.33 753.368 1138.46 753.501L1105.71 758.41C1104.95 758.531 1104.19 758.531 1103.43 758.41L1088.04 755.38C1087.62 755.335 1087.19 755.335 1086.77 755.38H1057.23C1056.76 755.335 1056.3 755.335 1055.83 755.38L1025.87 761.743C1025.06 761.895 1024.24 761.895 1023.44 761.743L1005.59 759.046C1004.47 758.893 1003.33 759.018 1002.26 759.41L990.807 763.592C989.886 763.936 988.899 764.071 987.919 763.987C986.94 763.903 985.99 763.603 985.141 763.107L979.717 760.077C978.339 759.264 976.712 758.983 975.142 759.289L947.871 764.471C947.06 764.622 946.228 764.622 945.417 764.471L932.297 762.137C931.583 762.032 930.858 762.032 930.145 762.137L915.661 764.228C914.626 764.387 913.569 764.3 912.574 763.973C911.579 763.647 910.675 763.091 909.935 762.35L905.147 757.774C903.867 756.521 902.15 755.815 900.36 755.804H888.876C888.493 755.835 888.108 755.835 887.724 755.804L854.212 749.925C853.303 749.728 852.363 749.728 851.455 749.925L826.123 755.986C825.607 756.108 825.078 756.169 824.548 756.167H794.035C793.571 756.121 793.104 756.121 792.641 756.167L782.309 758.38C780.569 758.863 778.709 758.645 777.127 757.774L774.279 755.925C773.192 755.234 771.931 754.866 770.643 754.864H752.19C751.316 754.868 750.451 755.043 749.644 755.38L736.736 760.653C735.847 761.024 734.888 761.198 733.925 761.161C732.962 761.124 732.019 760.878 731.161 760.44L724.313 756.986C722.983 756.32 721.472 756.107 720.01 756.38L706.496 758.986C705.577 759.182 704.627 759.182 703.709 758.986L672.378 751.713H671.681L645.047 748.41C643.272 748.208 641.489 748.709 640.077 749.804L624.927 761.562C624.078 762.218 623.402 763.071 622.957 764.047L619.564 771.592C619.18 772.422 618.634 773.166 617.957 773.78C617.281 774.395 616.487 774.866 615.625 775.168L603.989 779.138C602.913 779.53 601.751 779.624 600.626 779.411L574.749 774.804C573.717 774.626 572.657 774.689 571.653 774.989C570.649 775.288 569.728 775.817 568.962 776.532L558.69 786.138C558.016 786.771 557.479 787.537 557.114 788.387C556.75 789.237 556.564 790.153 556.569 791.077C556.569 792.704 555.98 794.276 554.91 795.502C553.84 796.728 552.363 797.525 550.751 797.744L531.328 800.441C530.606 800.562 529.869 800.562 529.147 800.441L511.572 797.108C511.049 797.047 510.52 797.047 509.997 797.108L480.635 798.441C479.402 798.489 478.178 798.206 477.09 797.623L471.939 794.805C471.148 794.353 470.27 794.074 469.363 793.987L453.94 792.441C452.916 792.335 451.881 792.459 450.91 792.805L432.73 799.26C432.058 799.498 431.352 799.631 430.639 799.654L404.793 800.35C404.44 800.321 404.085 800.321 403.732 800.35L359.948 808.442C358.999 808.638 358.019 808.638 357.069 808.442L342.161 804.623C341.605 804.491 341.036 804.42 340.465 804.411H293.468C292.606 804.42 291.751 804.255 290.953 803.926L276.227 798.047C274.686 797.457 272.981 797.457 271.44 798.047L257.744 802.926C256.431 803.386 255.294 804.242 254.491 805.377C253.687 806.512 253.257 807.869 253.259 809.26V812.29C253.255 813.176 253.426 814.054 253.763 814.874C254.099 815.694 254.594 816.439 255.219 817.067C255.844 817.695 256.587 818.193 257.405 818.533C258.223 818.873 259.1 819.048 259.986 819.048H1817.44C1818.32 819.048 1819.2 818.873 1820.02 818.533C1820.84 818.193 1821.58 817.695 1822.21 817.067C1822.83 816.439 1823.33 815.694 1823.66 814.874C1824 814.054 1824.17 813.176 1824.17 812.29L1823.77 684.196C1823.81 683.11 1823.59 682.03 1823.13 681.047C1822.67 680.065 1821.97 679.209 1821.11 678.551C1820.24 677.894 1819.23 677.455 1818.16 677.272C1817.09 677.089 1815.99 677.167 1814.95 677.499V677.499Z" fill="#00BFA6" fill-opacity="0.08"/>
<path d="M649.743 631.285C661.457 631.285 670.954 621.788 670.954 610.073C670.954 598.357 661.457 588.86 649.743 588.86C638.029 588.86 628.533 598.357 628.533 610.073C628.533 621.788 638.029 631.285 649.743 631.285Z" fill="#00BFA6" fill-opacity="0.08"/>
<path d="M1667.84 497.948C1679.56 497.948 1689.05 488.451 1689.05 476.736C1689.05 465.02 1679.56 455.523 1667.84 455.523C1656.13 455.523 1646.63 465.02 1646.63 476.736C1646.63 488.451 1656.13 497.948 1667.84 497.948Z" fill="#00BFA6" fill-opacity="0.08"/>
<path d="M1140.61 640.376C1152.33 640.376 1161.82 630.879 1161.82 619.164C1161.82 607.448 1152.33 597.951 1140.61 597.951C1128.9 597.951 1119.4 607.448 1119.4 619.164C1119.4 630.879 1128.9 640.376 1140.61 640.376Z" fill="#00BFA6" fill-opacity="0.08"/>
<path d="M1416.35 564.617C1428.06 564.617 1437.56 555.119 1437.56 543.404C1437.56 531.689 1428.06 522.191 1416.35 522.191C1404.63 522.191 1395.14 531.689 1395.14 543.404C1395.14 555.119 1404.63 564.617 1416.35 564.617Z" fill="#00BFA6" fill-opacity="0.08"/>
<path d="M1826.86 477.221C1826.86 475.618 1826.42 474.047 1825.59 472.674C1824.76 471.301 1823.58 470.178 1822.17 469.423C1820.75 468.668 1819.16 468.31 1817.56 468.386C1815.96 468.463 1814.41 468.971 1813.08 469.857L1789.62 485.494C1788.8 486.048 1788.07 486.734 1787.47 487.524L1772.9 506.767C1772.01 507.907 1770.87 508.821 1769.56 509.432C1768.26 510.043 1766.82 510.334 1765.38 510.282L1760.62 510.04C1758.99 509.958 1757.41 509.429 1756.06 508.509C1754.71 507.59 1753.64 506.316 1752.96 504.827L1749.93 498.373C1749.25 496.857 1748.16 495.561 1746.78 494.635C1745.41 493.709 1743.8 493.19 1742.14 493.136C1740.48 493.082 1738.84 493.497 1737.4 494.332C1735.97 495.167 1734.79 496.388 1734.02 497.858L1727.96 509.464C1727.2 510.887 1726.07 512.077 1724.69 512.905C1723.31 513.733 1721.72 514.167 1720.11 514.161H1690.05C1688.07 514.17 1686.15 513.511 1684.59 512.29C1683.02 511.07 1681.92 509.359 1681.45 507.434L1674.24 478.554C1673.84 476.944 1672.99 475.479 1671.8 474.325C1670.61 473.171 1669.12 472.373 1667.5 472.023C1665.88 471.673 1664.19 471.784 1662.63 472.344C1661.07 472.904 1659.69 473.89 1658.66 475.19L1615.33 529.98C1614.11 531.537 1612.4 532.638 1610.48 533.106C1608.55 533.573 1606.53 533.379 1604.73 532.555L1576.88 519.979C1575.42 519.297 1573.81 519.024 1572.21 519.189C1570.61 519.355 1569.08 519.953 1567.79 520.919L1557.82 528.283C1557.35 528.638 1556.91 529.045 1556.52 529.495L1530.22 558.617C1529.33 559.631 1528.23 560.43 1526.99 560.955C1525.75 561.48 1524.41 561.717 1523.07 561.647L1505.89 560.556C1504.95 560.5 1504.01 560.582 1503.1 560.799L1487.62 564.768C1485.85 565.229 1483.99 565.133 1482.28 564.493C1480.57 563.853 1479.1 562.7 1478.07 561.193L1476.31 558.586C1475.47 557.363 1474.34 556.369 1473.02 555.697C1471.69 555.025 1470.22 554.695 1468.74 554.738L1451.47 555.253C1449.47 555.286 1447.56 556.015 1446.04 557.314L1441.8 560.859C1440.8 561.702 1439.62 562.313 1438.35 562.646C1437.08 562.98 1435.75 563.028 1434.47 562.787C1433.18 562.547 1431.96 562.023 1430.89 561.255C1429.83 560.487 1428.95 559.493 1428.32 558.344L1423.83 550.223C1422.74 548.237 1420.93 546.745 1418.77 546.052C1416.61 545.359 1414.27 545.518 1412.23 546.495L1383.17 560.465L1351.02 577.072C1349.97 577.611 1348.83 577.935 1347.65 578.023C1346.47 578.112 1345.29 577.964 1344.17 577.587L1318.57 569.102C1317.42 568.723 1316.2 568.579 1314.99 568.678L1265.42 572.92C1263.74 573.094 1262.14 573.734 1260.8 574.767C1259.46 575.8 1258.44 577.186 1257.85 578.769L1250.67 598.83C1250.23 600.035 1249.54 601.133 1248.64 602.046C1247.75 602.96 1246.66 603.669 1245.46 604.124C1244.27 604.579 1242.98 604.769 1241.71 604.682C1240.43 604.594 1239.18 604.231 1238.06 603.618L1237.76 603.466C1235.92 602.445 1233.77 602.116 1231.71 602.539C1229.65 602.961 1227.81 604.107 1226.52 605.769L1220.88 612.982C1219.38 614.859 1217.2 616.069 1214.82 616.345L1199.31 618.012C1198.43 618.1 1197.57 618.315 1196.76 618.649L1172.19 629.164C1171.08 629.619 1169.9 629.856 1168.7 629.861H1156.88C1155.44 629.86 1154.02 629.507 1152.74 628.831C1151.46 628.155 1150.37 627.177 1149.55 625.982L1147.86 623.497C1146.79 621.944 1145.26 620.769 1143.48 620.143C1141.71 619.516 1139.78 619.471 1137.98 620.012L1110.43 628.346C1108.54 628.915 1106.52 628.84 1104.68 628.134L1091.89 623.225C1090.92 622.844 1089.9 622.639 1088.86 622.618H1061.41C1060.22 622.617 1059.04 622.865 1057.95 623.346L1030.68 634.922C1028.77 635.749 1026.62 635.867 1024.62 635.255L1011.14 631.225C1009.83 630.833 1008.44 630.75 1007.09 630.981C1005.74 631.212 1004.46 631.752 1003.35 632.558L997.443 636.891C995.654 638.2 993.44 638.792 991.236 638.551C989.032 638.31 986.999 637.253 985.535 635.588L984.656 634.588C983.464 633.228 981.886 632.264 980.131 631.825C978.377 631.387 976.53 631.494 974.839 632.134L952.871 640.528C950.914 641.241 948.768 641.241 946.811 640.528L937.175 637.073C935.415 636.466 933.512 636.413 931.721 636.922L922.631 639.558C920.64 640.132 918.512 639.992 916.614 639.162C914.715 638.332 913.168 636.864 912.238 635.013L908.844 628.194C908.104 626.722 906.97 625.483 905.569 624.617C904.167 623.75 902.553 623.289 900.905 623.285H893.027C891.996 623.302 890.971 623.138 889.997 622.8L859.423 612.073C858.325 611.68 857.159 611.509 855.993 611.572C854.828 611.634 853.687 611.928 852.636 612.436L830.305 623.164C829.102 623.735 827.788 624.035 826.457 624.043H798.246C797.051 624.048 795.868 624.285 794.762 624.74L789.005 627.225C787.204 627.989 785.201 628.139 783.306 627.651C781.411 627.164 779.73 626.066 778.521 624.528C777.693 623.46 776.632 622.597 775.418 622.003C774.205 621.41 772.872 621.102 771.521 621.103H757.28C755.227 621.101 753.236 621.807 751.644 623.103L743.372 629.891C741.672 631.3 739.505 632.019 737.3 631.906C735.095 631.794 733.013 630.859 731.464 629.285L729.585 627.406C728.372 626.185 726.829 625.342 725.145 624.982C723.461 624.621 721.709 624.758 720.101 625.376L711.859 628.558C709.606 629.399 707.11 629.311 704.921 628.316L675.923 614.861C675.411 614.616 674.872 614.433 674.317 614.315L651.561 608.709C649.766 608.26 647.876 608.388 646.158 609.073C644.439 609.758 642.98 610.967 641.986 612.527L627.684 634.831C627.137 635.688 626.738 636.63 626.503 637.619L622.17 656.559C621.651 658.722 620.357 660.619 618.534 661.892L609.08 668.377C607.929 669.17 606.606 669.678 605.22 669.857C603.834 670.036 602.425 669.882 601.111 669.408L581.658 662.498C579.624 661.78 577.398 661.827 575.396 662.63C573.395 663.433 571.753 664.937 570.78 666.862L560.538 686.014C559.865 687.305 559.511 688.74 559.508 690.196V698.833C559.5 700.772 558.86 702.656 557.684 704.198C556.508 705.741 554.861 706.857 552.993 707.378L535.964 712.106C534.158 712.617 532.234 712.532 530.48 711.863L515.633 706.257C514.379 705.774 513.031 705.588 511.693 705.712L486.09 708.045C484.725 708.177 483.349 707.989 482.07 707.494C480.792 707 479.646 706.213 478.726 705.196L475.696 701.833C474.435 700.418 472.741 699.459 470.879 699.105L459.213 696.742C458.02 696.515 456.795 696.53 455.608 696.785C454.422 697.04 453.298 697.53 452.304 698.227L436.942 709.166C435.568 710.132 433.952 710.699 432.276 710.803L408.732 712.045C407.842 712.101 406.964 712.284 406.126 712.591L365.251 727.742C364.106 728.177 362.882 728.363 361.66 728.29C360.438 728.217 359.245 727.886 358.16 727.318L346.343 721.257C345.095 720.621 343.714 720.288 342.313 720.288H298.377C296.348 720.288 294.381 719.592 292.802 718.318L282.166 709.803C280.659 708.596 278.799 707.913 276.869 707.858C274.939 707.804 273.043 708.38 271.47 709.5L260.077 717.621C258.925 718.445 257.986 719.532 257.337 720.791C256.689 722.051 256.351 723.447 256.35 724.864" stroke="#00BFA6" stroke-opacity="0.08" stroke-miterlimit="10"/>
<path d="M287.895 926.24C296.613 926.24 302.051 921.201 302.051 913.701V891.833H294.973V913.068C294.973 917.451 292.441 920.24 287.895 920.24C283.348 920.24 280.793 917.451 280.793 913.068V891.833H273.715V913.701C273.715 921.224 279.223 926.24 287.895 926.24ZM307.113 933.857H313.957V921.365H314.098C315.457 924.341 318.293 926.169 321.879 926.169C328.16 926.169 332.051 921.247 332.051 913.091V913.068C332.051 904.888 328.16 900.013 321.785 900.013C318.223 900.013 315.48 901.865 314.121 904.911H313.957V900.529H307.113V933.857ZM319.535 920.497C316.207 920.497 313.934 917.638 313.934 913.115V913.091C313.934 908.544 316.207 905.685 319.535 905.685C322.934 905.685 325.09 908.474 325.09 913.068V913.091C325.09 917.661 322.934 920.497 319.535 920.497ZM335.777 925.654H342.621V891.833H335.777V925.654ZM358.77 926.169C366.363 926.169 371.215 921.294 371.215 913.091V913.044C371.215 904.911 366.27 900.013 358.746 900.013C351.246 900.013 346.324 904.958 346.324 913.044V913.091C346.324 921.271 351.129 926.169 358.77 926.169ZM358.793 920.802C355.418 920.802 353.285 918.013 353.285 913.091V913.044C353.285 908.193 355.441 905.38 358.746 905.38C362.074 905.38 364.254 908.193 364.254 913.044V913.091C364.254 917.99 362.121 920.802 358.793 920.802ZM382.23 926.052C385.535 926.052 388.207 924.482 389.637 921.904H389.777V925.654H396.621V908.427C396.621 903.365 392.426 900.013 385.934 900.013C379.301 900.013 375.316 903.341 374.941 907.982L374.918 908.263H381.176L381.223 908.052C381.551 906.435 383.098 905.24 385.652 905.24C388.324 905.24 389.777 906.622 389.777 908.849V910.396L383.566 910.771C377.332 911.169 373.793 913.841 373.793 918.411V918.458C373.793 922.888 377.191 926.052 382.23 926.052ZM380.566 918.107V918.06C380.566 916.279 381.949 915.154 384.598 914.99L389.777 914.661V916.466C389.777 919.091 387.527 921.06 384.457 921.06C382.09 921.06 380.566 919.958 380.566 918.107ZM410.355 926.169C413.988 926.169 416.754 924.341 418.09 921.365H418.23V925.654H425.074V891.833H418.23V904.888H418.09C416.73 901.841 413.918 900.013 410.355 900.013C404.027 900.013 400.137 904.888 400.137 913.068V913.091C400.137 921.247 404.027 926.169 410.355 926.169ZM412.652 920.497C409.23 920.497 407.098 917.661 407.098 913.091V913.068C407.098 908.474 409.254 905.685 412.652 905.685C415.957 905.685 418.254 908.544 418.254 913.068V913.091C418.254 917.638 415.98 920.497 412.652 920.497ZM305.285 982.654H318.199C328.348 982.654 334.324 976.349 334.324 965.615V965.568C334.324 954.857 328.324 948.833 318.199 948.833H305.285V982.654ZM312.363 976.794V954.669H317.355C323.566 954.669 327.105 958.536 327.105 965.591V965.638C327.105 972.951 323.684 976.794 317.355 976.794H312.363ZM345.645 983.052C348.949 983.052 351.621 981.482 353.051 978.904H353.191V982.654H360.035V965.427C360.035 960.365 355.84 957.013 349.348 957.013C342.715 957.013 338.73 960.341 338.355 964.982L338.332 965.263H344.59L344.637 965.052C344.965 963.435 346.512 962.24 349.066 962.24C351.738 962.24 353.191 963.622 353.191 965.849V967.396L346.98 967.771C340.746 968.169 337.207 970.841 337.207 975.411V975.458C337.207 979.888 340.605 983.052 345.645 983.052ZM343.98 975.107V975.06C343.98 973.279 345.363 972.154 348.012 971.99L353.191 971.661V973.466C353.191 976.091 350.941 978.06 347.871 978.06C345.504 978.06 343.98 976.958 343.98 975.107ZM374.449 983.169C375.879 983.169 376.98 983.029 377.754 982.911V977.896C377.332 977.943 376.887 978.013 376.277 978.013C374.215 978.013 373.16 977.216 373.16 974.872V962.685H377.754V957.529H373.16V951.388H366.246V957.529H362.754V962.685H366.246V975.622C366.246 981.013 368.871 983.169 374.449 983.169ZM388.77 983.052C392.074 983.052 394.746 981.482 396.176 978.904H396.316V982.654H403.16V965.427C403.16 960.365 398.965 957.013 392.473 957.013C385.84 957.013 381.855 960.341 381.48 964.982L381.457 965.263H387.715L387.762 965.052C388.09 963.435 389.637 962.24 392.191 962.24C394.863 962.24 396.316 963.622 396.316 965.849V967.396L390.105 967.771C383.871 968.169 380.332 970.841 380.332 975.411V975.458C380.332 979.888 383.73 983.052 388.77 983.052ZM387.105 975.107V975.06C387.105 973.279 388.488 972.154 391.137 971.99L396.316 971.661V973.466C396.316 976.091 394.066 978.06 390.996 978.06C388.629 978.06 387.105 976.958 387.105 975.107Z" fill="#00BFA6"/>
<path d="M349.84 647.654H391.887V444.732H349.699L297.246 481.154V518.841L348.996 483.685H349.84V647.654Z" fill="#00BFA6"/>
<path d="M964.855 647.654H1112.51V613.904H1020.4V612.216L1062.87 573.404C1097.89 541.201 1109.56 525.169 1109.56 500.56V500.279C1109.56 465.685 1080.03 441.216 1037.14 441.216C994.246 441.216 962.465 468.076 962.465 506.326V507.451H1001.84L1001.98 506.185C1002.54 487.904 1016.61 474.263 1037.42 474.263C1055.42 474.263 1068.07 486.076 1068.21 502.669V502.951C1068.21 517.013 1062.73 526.997 1036.57 551.466L964.855 618.544V647.654Z" fill="#00BFA6"/>
<path d="M1762.57 651.169C1809.96 651.169 1841.46 626.701 1841.46 590.419V590.138C1841.46 562.576 1821.78 545.138 1791.68 542.326V541.482C1815.45 536.56 1834.01 520.107 1834.01 494.794V494.513C1834.01 462.591 1805.89 441.216 1762.15 441.216C1719.54 441.216 1691 464.279 1688.18 499.435L1688.04 501.122H1727L1727.14 499.857C1728.82 484.107 1742.32 473.841 1762.15 473.841C1782.12 473.841 1793.79 483.685 1793.79 500.138V500.419C1793.79 516.872 1780.01 528.122 1758.78 528.122H1736.14V558.357H1759.34C1783.81 558.357 1798.29 569.044 1798.29 588.451V588.732C1798.29 605.326 1784.23 616.997 1762.43 616.997C1740.5 616.997 1726.15 606.169 1724.32 591.685L1724.04 590.138H1683.54L1683.68 591.966C1686.5 626.982 1716.59 651.169 1762.57 651.169Z" fill="#00BFA6"/>
<path d="M1004.44 925.654H1011.52V913.396H1017.19L1023.5 925.654H1031.51L1024.39 912.341C1028.14 910.865 1030.5 907.161 1030.5 902.708V902.661C1030.5 895.865 1026 891.833 1018.41 891.833H1004.44V925.654ZM1011.52 908.029V897.365H1017.54C1021.04 897.365 1023.26 899.427 1023.26 902.661V902.708C1023.26 906.036 1021.15 908.029 1017.64 908.029H1011.52ZM1043.16 926.169C1046.96 926.169 1049.54 924.388 1050.82 921.505H1050.96V925.654H1057.81V900.529H1050.96V914.966C1050.96 918.247 1049.02 920.497 1045.95 920.497C1042.88 920.497 1041.33 918.599 1041.33 915.318V900.529H1034.49V916.747C1034.49 922.63 1037.63 926.169 1043.16 926.169ZM1062.26 925.654H1069.11V911.216C1069.11 907.935 1071.05 905.685 1074.12 905.685C1077.19 905.685 1078.74 907.56 1078.74 910.841V925.654H1085.58V909.435C1085.58 903.552 1082.44 900.013 1076.91 900.013C1073.11 900.013 1070.54 901.771 1069.25 904.654H1069.11V900.529H1062.26V925.654ZM984.355 982.654H990.66V959.779H990.848L999.988 982.654H1004.44L1013.56 959.779H1013.77V982.654H1020.07V948.833H1011.89L1002.29 973.138H1002.14L992.535 948.833H984.355V982.654ZM1036.64 983.169C1044.24 983.169 1049.09 978.294 1049.09 970.091V970.044C1049.09 961.911 1044.14 957.013 1036.62 957.013C1029.12 957.013 1024.2 961.958 1024.2 970.044V970.091C1024.2 978.271 1029 983.169 1036.64 983.169ZM1036.67 977.802C1033.29 977.802 1031.16 975.013 1031.16 970.091V970.044C1031.16 965.193 1033.32 962.38 1036.62 962.38C1039.95 962.38 1042.13 965.193 1042.13 970.044V970.091C1042.13 974.99 1040 977.802 1036.67 977.802ZM1061.93 983.169C1065.57 983.169 1068.33 981.341 1069.67 978.365H1069.81V982.654H1076.65V948.833H1069.81V961.888H1069.67C1068.31 958.841 1065.5 957.013 1061.93 957.013C1055.61 957.013 1051.71 961.888 1051.71 970.068V970.091C1051.71 978.247 1055.61 983.169 1061.93 983.169ZM1064.23 977.497C1060.81 977.497 1058.68 974.661 1058.68 970.091V970.068C1058.68 965.474 1060.83 962.685 1064.23 962.685C1067.54 962.685 1069.83 965.544 1069.83 970.068V970.091C1069.83 974.638 1067.56 977.497 1064.23 977.497ZM1092.66 983.169C1099.83 983.169 1103.3 978.927 1104.07 975.224L1104.14 974.966H1097.86L1097.82 975.107C1097.32 976.513 1095.61 978.06 1092.8 978.06C1089.31 978.06 1087.13 975.716 1087.06 971.708H1104.36V969.599C1104.36 962.005 1099.74 957.013 1092.38 957.013C1085.02 957.013 1080.31 962.122 1080.31 970.115V970.138C1080.31 978.177 1084.97 983.169 1092.66 983.169ZM1092.5 962.122C1095.33 962.122 1097.37 963.927 1097.79 967.396H1087.13C1087.57 963.997 1089.68 962.122 1092.5 962.122ZM1108.06 982.654H1114.9V948.833H1108.06V982.654Z" fill="#00BFA6"/>
<path d="M1696.01 925.654H1718.42V919.818H1703.09V911.31H1717.55V905.779H1703.09V897.669H1718.42V891.833H1696.01V925.654ZM1721.23 925.654H1728.43L1733.14 916.935H1733.28L1738.06 925.654H1745.49L1737.71 912.951L1745.56 900.529H1738.11L1733.65 909.013H1733.51L1728.99 900.529H1721.28L1729.11 913.138L1721.23 925.654ZM1748.3 933.857H1755.14V921.365H1755.29C1756.64 924.341 1759.48 926.169 1763.07 926.169C1769.35 926.169 1773.24 921.247 1773.24 913.091V913.068C1773.24 904.888 1769.35 900.013 1762.97 900.013C1759.41 900.013 1756.67 901.865 1755.31 904.911H1755.14V900.529H1748.3V933.857ZM1760.72 920.497C1757.39 920.497 1755.12 917.638 1755.12 913.115V913.091C1755.12 908.544 1757.39 905.685 1760.72 905.685C1764.12 905.685 1766.28 908.474 1766.28 913.068V913.091C1766.28 917.661 1764.12 920.497 1760.72 920.497ZM1788.33 926.169C1795.93 926.169 1800.78 921.294 1800.78 913.091V913.044C1800.78 904.911 1795.83 900.013 1788.31 900.013C1780.81 900.013 1775.89 904.958 1775.89 913.044V913.091C1775.89 921.271 1780.69 926.169 1788.33 926.169ZM1788.36 920.802C1784.98 920.802 1782.85 918.013 1782.85 913.091V913.044C1782.85 908.193 1785 905.38 1788.31 905.38C1791.64 905.38 1793.82 908.193 1793.82 913.044V913.091C1793.82 917.99 1791.68 920.802 1788.36 920.802ZM1804.32 925.654H1811.16V911.497C1811.16 907.958 1813.13 905.919 1816.5 905.919C1817.49 905.919 1818.43 906.06 1818.99 906.294V900.271C1818.47 900.13 1817.77 900.013 1817.02 900.013C1814.04 900.013 1811.91 901.771 1811.18 904.818H1811.04V900.529H1804.32V925.654ZM1831.79 926.169C1833.21 926.169 1834.32 926.029 1835.09 925.911V920.896C1834.67 920.943 1834.22 921.013 1833.61 921.013C1831.55 921.013 1830.5 920.216 1830.5 917.872V905.685H1835.09V900.529H1830.5V894.388H1823.58V900.529H1820.09V905.685H1823.58V918.622C1823.58 924.013 1826.21 926.169 1831.79 926.169ZM1686.26 982.654H1693.34V970.396H1699.01L1705.32 982.654H1713.33L1706.21 969.341C1709.96 967.865 1712.32 964.161 1712.32 959.708V959.661C1712.32 952.865 1707.82 948.833 1700.23 948.833H1686.26V982.654ZM1693.34 965.029V954.365H1699.36C1702.86 954.365 1705.08 956.427 1705.08 959.661V959.708C1705.08 963.036 1702.97 965.029 1699.46 965.029H1693.34ZM1727.63 983.169C1734.8 983.169 1738.27 978.927 1739.04 975.224L1739.11 974.966H1732.83L1732.79 975.107C1732.29 976.513 1730.58 978.06 1727.77 978.06C1724.28 978.06 1722.1 975.716 1722.03 971.708H1739.32V969.599C1739.32 962.005 1734.71 957.013 1727.35 957.013C1719.99 957.013 1715.28 962.122 1715.28 970.115V970.138C1715.28 978.177 1719.94 983.169 1727.63 983.169ZM1727.46 962.122C1730.3 962.122 1732.34 963.927 1732.76 967.396H1722.1C1722.54 963.997 1724.65 962.122 1727.46 962.122ZM1753.2 983.169C1759.67 983.169 1764.19 979.935 1764.19 975.013V974.99C1764.19 971.286 1762.04 969.224 1756.79 968.122L1752.52 967.208C1749.99 966.669 1749.12 965.826 1749.12 964.536V964.513C1749.12 962.896 1750.6 961.841 1752.96 961.841C1755.5 961.841 1756.97 963.201 1757.21 965.005L1757.23 965.193H1763.54V964.958C1763.37 960.552 1759.64 957.013 1752.96 957.013C1746.57 957.013 1742.44 960.107 1742.44 964.888V964.911C1742.44 968.661 1744.9 971.099 1749.78 972.13L1754.04 973.021C1756.5 973.56 1757.35 974.333 1757.35 975.669V975.693C1757.35 977.31 1755.78 978.318 1753.2 978.318C1750.46 978.318 1748.98 977.169 1748.54 975.201L1748.49 974.99H1741.81L1741.83 975.201C1742.37 979.958 1746.24 983.169 1753.2 983.169ZM1776.12 983.169C1779.92 983.169 1782.5 981.388 1783.79 978.505H1783.93V982.654H1790.77V957.529H1783.93V971.966C1783.93 975.247 1781.98 977.497 1778.91 977.497C1775.84 977.497 1774.29 975.599 1774.29 972.318V957.529H1767.45V973.747C1767.45 979.63 1770.59 983.169 1776.12 983.169ZM1795.39 982.654H1802.23V948.833H1795.39V982.654ZM1816.83 983.169C1818.26 983.169 1819.36 983.029 1820.14 982.911V977.896C1819.71 977.943 1819.27 978.013 1818.66 978.013C1816.6 978.013 1815.54 977.216 1815.54 974.872V962.685H1820.14V957.529H1815.54V951.388H1808.63V957.529H1805.14V962.685H1808.63V975.622C1808.63 981.013 1811.25 983.169 1816.83 983.169ZM1834.25 983.169C1840.71 983.169 1845.24 979.935 1845.24 975.013V974.99C1845.24 971.286 1843.08 969.224 1837.83 968.122L1833.57 967.208C1831.04 966.669 1830.17 965.826 1830.17 964.536V964.513C1830.17 962.896 1831.64 961.841 1834.01 961.841C1836.54 961.841 1838.02 963.201 1838.25 965.005L1838.28 965.193H1844.58V964.958C1844.42 960.552 1840.69 957.013 1834.01 957.013C1827.61 957.013 1823.49 960.107 1823.49 964.888V964.911C1823.49 968.661 1825.95 971.099 1830.82 972.13L1835.09 973.021C1837.55 973.56 1838.39 974.333 1838.39 975.669V975.693C1838.39 977.31 1836.82 978.318 1834.25 978.318C1831.5 978.318 1830.03 977.169 1829.58 975.201L1829.54 974.99H1822.86L1822.88 975.201C1823.42 979.958 1827.29 983.169 1834.25 983.169Z" fill="#00BFA6"/>
<path d="M879.479 942.714C880.064 942.129 880.064 941.179 879.479 940.593L869.933 931.047C869.347 930.461 868.397 930.461 867.811 931.047C867.226 931.633 867.226 932.583 867.811 933.168L876.297 941.654L867.811 950.139C867.226 950.725 867.226 951.675 867.811 952.26C868.397 952.846 869.347 952.846 869.933 952.26L879.479 942.714ZM505.418 943.154H878.418V940.154H505.418V943.154Z" fill="#00BFA6"/>
<path d="M879.479 942.714C880.064 942.129 880.064 941.179 879.479 940.593L869.933 931.047C869.347 930.461 868.397 930.461 867.811 931.047C867.226 931.633 867.226 932.583 867.811 933.168L876.297 941.654L867.811 950.139C867.226 950.725 867.226 951.675 867.811 952.26C868.397 952.846 869.347 952.846 869.933 952.26L879.479 942.714ZM505.418 943.154H878.418V940.154H505.418V943.154Z" fill="#00BFA6"/>
<path d="M1605.48 942.714C1606.06 942.129 1606.06 941.179 1605.48 940.593L1595.93 931.047C1595.35 930.461 1594.4 930.461 1593.81 931.047C1593.23 931.633 1593.23 932.583 1593.81 933.168L1602.3 941.654L1593.81 950.139C1593.23 950.725 1593.23 951.675 1593.81 952.26C1594.4 952.846 1595.35 952.846 1595.93 952.26L1605.48 942.714ZM1231.42 943.154H1604.42V940.154H1231.42V943.154Z" fill="#00BFA6"/>
<path d="M1605.48 942.714C1606.06 942.129 1606.06 941.179 1605.48 940.593L1595.93 931.047C1595.35 930.461 1594.4 930.461 1593.81 931.047C1593.23 931.633 1593.23 932.583 1593.81 933.168L1602.3 941.654L1593.81 950.139C1593.23 950.725 1593.23 951.675 1593.81 952.26C1594.4 952.846 1595.35 952.846 1595.93 952.26L1605.48 942.714ZM1231.42 943.154H1604.42V940.154H1231.42V943.154Z" fill="#00BFA6"/>
<circle cx="358.918" cy="536.154" r="160" stroke="#00BFA6" stroke-width="3"/>
<circle cx="1036.92" cy="536.154" r="160" stroke="#00BFA6" stroke-width="3"/>
<circle cx="1762.92" cy="536.154" r="160" stroke="#00BFA6" stroke-width="3"/>
</svg>
