<svg width="64" height="64" viewBox="0 0 64 64" fill="none" xmlns="http://www.w3.org/2000/svg">
<path d="M4 32C4.00836 24.5765 6.96104 17.4595 12.2102 12.2102C17.4595 6.96104 24.5765 4.00836 32 4L32 8C27.2532 8 22.6131 9.40757 18.6663 12.0447C14.7195 14.6819 11.6434 18.4302 9.82689 22.8156C8.01039 27.201 7.53511 32.0266 8.46115 36.6822C9.3872 41.3377 11.673 45.6141 15.0294 48.9706C18.3859 52.327 22.6623 54.6128 27.3178 55.5388C31.9734 56.4649 36.799 55.9896 41.1844 54.1731C45.5698 52.3566 49.3181 49.2805 51.9553 45.3337C54.5924 41.3869 56 36.7468 56 32L60 32C60 39.4261 57.05 46.548 51.799 51.799C46.548 57.05 39.4261 60 32 60C24.5739 60 17.452 57.05 12.201 51.799C6.94999 46.548 4 39.4261 4 32Z" fill="#039874"/>
<path d="M12 32C12.0061 26.6975 14.1152 21.614 17.8646 17.8646C21.614 14.1152 26.6975 12.0061 32 12L32 16C28.8355 16 25.7421 16.9384 23.1109 18.6965C20.4797 20.4546 18.4289 22.9534 17.2179 25.8771C16.0069 28.8007 15.6901 32.0177 16.3074 35.1214C16.9248 38.2251 18.4486 41.0761 20.6863 43.3137C22.9239 45.5513 25.7749 47.0752 28.8786 47.6926C31.9822 48.3099 35.1993 47.9931 38.1229 46.7821C41.0466 45.5711 43.5454 43.5203 45.3035 40.8891C47.0616 38.2579 48 35.1645 48 32L52 32C52 37.3043 49.8929 42.3914 46.1421 46.1421C42.3914 49.8929 37.3043 52 32 52C26.6957 52 21.6086 49.8929 17.8579 46.1421C14.1071 42.3914 12 37.3043 12 32Z" fill="#039874"/>
<path d="M20 32C20.0037 28.8185 21.2691 25.7684 23.5188 23.5188C25.7684 21.2691 28.8185 20.0037 32 20L32 24C30.4177 24 28.871 24.4692 27.5554 25.3482C26.2398 26.2273 25.2145 27.4767 24.609 28.9385C24.0035 30.4003 23.845 32.0089 24.1537 33.5607C24.4624 35.1126 25.2243 36.538 26.3431 37.6569C27.462 38.7757 28.8874 39.5376 30.4393 39.8463C31.9911 40.155 33.5997 39.9965 35.0615 39.391C36.5233 38.7855 37.7727 37.7602 38.6518 36.4446C39.5308 35.129 40 33.5823 40 32L44 32C44 35.1826 42.7357 38.2348 40.4853 40.4853C38.2348 42.7357 35.1826 44 32 44C28.8174 44 25.7652 42.7357 23.5147 40.4853C21.2643 38.2348 20 35.1826 20 32Z" fill="#039874"/>
</svg>
