<svg width="64" height="64" viewBox="0 0 48 48" fill="none" xmlns="http://www.w3.org/2000/svg">
<path d="M18 2.46C17.997 2.46 17.994 2.46 17.991 2.46C15.7815 2.46 13.9545 3.5985 13.1325 5.46H12.4125C12.408 5.46 12.4035 5.46 12.399 5.46C10.4925 5.46 8.68197 6.0975 7.30197 7.2585C5.83797 8.4885 5.03097 10.185 5.02797 12.0315C5.02647 13.524 5.81697 15.177 6.56547 16.218C3.23097 17.373 0.964468 20.1675 0.959968 23.25C0.955468 26.319 3.22047 29.115 6.56097 30.2805C5.80197 31.3185 4.99497 32.9625 4.99347 34.4295C4.98897 38.0685 8.31597 41.034 12.414 41.0415H13.134C13.9485 42.8985 15.78 44.0385 18 44.0415C18.003 44.0415 18.006 44.0415 18.0105 44.0415C20.9685 44.0415 23.037 41.97 23.0415 39.0015V7.5C23.0445 4.5375 20.973 2.4645 18 2.46ZM18 27.96C17.4705 27.96 17.04 27.5295 17.04 27C17.04 26.4705 17.4705 26.04 18 26.04C18.5295 26.04 18.96 26.4705 18.96 27C18.96 27.5295 18.5295 27.96 18 27.96ZM21.96 20.46H18.54V10.9575C19.4025 10.719 20.04 9.936 20.04 9C20.04 7.875 19.125 6.96 18 6.96C16.875 6.96 15.96 7.875 15.96 9C15.96 9.9375 16.5975 10.719 17.46 10.9575V20.46H15C14.9985 20.46 14.9985 20.46 14.997 20.46C13.8 20.46 12.9615 21.2985 12.96 22.5V23.46H9.45747C9.21897 22.5975 8.43597 21.96 7.49997 21.96C6.37497 21.96 5.45997 22.875 5.45997 24C5.45997 25.125 6.37497 26.04 7.49997 26.04C8.43747 26.04 9.22047 25.401 9.45747 24.54H12.96V33.291C12.0975 33.5295 11.46 34.3125 11.46 35.25C11.46 36.375 12.375 37.29 13.5 37.29C14.625 37.29 15.54 36.375 15.54 35.25C15.54 34.3125 14.9025 33.5295 14.04 33.291V22.5C14.0415 21.8985 14.3985 21.5385 14.9985 21.5385H15H21.96V38.997C21.9555 41.181 20.598 42.687 18.54 42.912V28.9575C19.4025 28.719 20.04 27.936 20.04 26.9985C20.04 25.8735 19.125 24.9585 18 24.9585C16.875 24.9585 15.96 25.8735 15.96 26.9985C15.96 27.936 16.5975 28.719 17.46 28.9575V42.9225C15.8055 42.7515 14.5335 41.8095 14.01 40.32C13.9335 40.104 13.7295 39.96 13.5 39.96H12.414C9.35997 39.9555 6.06897 37.8405 6.07197 34.431C6.07497 32.982 7.14297 31.1175 7.88097 30.3825C8.01897 30.246 8.07147 30.045 8.02047 29.8575C7.96947 29.67 7.82247 29.5245 7.63497 29.4765C4.33647 28.6275 2.03547 26.067 2.03997 23.25C2.04447 20.436 4.32297 17.8905 7.58247 17.0385H11.5425C11.781 17.901 12.564 18.5385 13.5 18.5385C14.625 18.5385 15.54 17.6235 15.54 16.4985C15.54 15.3735 14.625 14.46 13.5 14.46C12.5625 14.46 11.781 15.0975 11.5425 15.96H7.74297C7.02747 15.1485 6.10497 13.4235 6.10647 12.033C6.10947 10.509 6.77997 9.108 7.99797 8.085C9.16647 7.1025 10.7715 6.54 12.402 6.54C12.405 6.54 12.4095 6.54 12.414 6.54H13.5C13.728 6.54 13.932 6.396 14.0085 6.1815C14.5965 4.527 16.0845 3.54 17.991 3.54C17.994 3.54 17.9955 3.54 17.9985 3.54C20.373 3.5445 21.9645 5.1345 21.96 7.5V20.46ZM18 9.96C17.4705 9.96 17.04 9.5295 17.04 9C17.04 8.4705 17.4705 8.04 18 8.04C18.5295 8.04 18.96 8.4705 18.96 9C18.96 9.5295 18.5295 9.96 18 9.96ZM13.5 34.29C14.0295 34.29 14.46 34.7205 14.46 35.25C14.46 35.7795 14.0295 36.21 13.5 36.21C12.9705 36.21 12.54 35.7795 12.54 35.25C12.54 34.7205 12.9705 34.29 13.5 34.29ZM8.45997 24C8.45997 24.5295 8.02947 24.96 7.49997 24.96C6.97047 24.96 6.53997 24.5295 6.53997 24C6.53997 23.4705 6.97047 23.04 7.49997 23.04C8.02947 23.04 8.45997 23.4705 8.45997 24ZM12.54 16.5C12.54 15.9705 12.9705 15.54 13.5 15.54C14.0295 15.54 14.46 15.9705 14.46 16.5C14.46 17.0295 14.0295 17.46 13.5 17.46C12.9705 17.46 12.54 17.0295 12.54 16.5ZM47.04 23.25C47.043 20.181 44.778 17.3865 41.439 16.2195C42.1995 15.1815 43.005 13.5375 43.008 12.069C43.011 10.2225 42.198 8.5215 40.719 7.2795C39.3435 6.1245 37.4745 5.4615 35.5875 5.4585H34.8675C34.0515 3.6015 32.2215 2.4615 30.003 2.4585C29.9985 2.4585 29.9955 2.4585 29.991 2.4585C28.533 2.4585 27.279 2.943 26.364 3.858C25.4475 4.7775 24.963 6.0345 24.96 7.5V38.9985C24.9555 41.9625 27.027 44.034 29.9985 44.04C30.003 44.04 30.006 44.04 30.009 44.04C32.2185 44.04 34.044 42.9 34.866 41.04H35.5845C35.5905 41.04 35.595 41.04 35.5995 41.04C37.506 41.04 39.3165 40.401 40.6965 39.2415C42.162 38.0115 42.969 36.3165 42.972 34.4685C42.9735 32.976 42.183 31.3215 41.4345 30.282C44.7705 29.127 47.0355 26.3325 47.04 23.25ZM30 18.54C30.5295 18.54 30.96 18.9705 30.96 19.5C30.96 20.0295 30.5295 20.46 30 20.46C29.4705 20.46 29.04 20.0295 29.04 19.5C29.04 18.9705 29.4705 18.54 30 18.54ZM40.419 29.46H36.4575C36.219 28.5975 35.436 27.96 34.4985 27.96C33.3735 27.96 32.4585 28.875 32.4585 30C32.4585 31.125 33.3735 32.04 34.4985 32.04C35.4345 32.04 36.219 31.4025 36.4575 30.54H40.257C40.971 31.3515 41.8935 33.0765 41.8905 34.467C41.889 35.991 41.2185 37.392 40.0005 38.4135C38.829 39.399 37.203 39.9285 35.586 39.9585H34.5C34.272 39.9585 34.068 40.104 33.9915 40.317C33.402 41.973 31.914 42.9585 30.009 42.9585C30.006 42.9585 30.003 42.9585 30.0015 42.9585C28.83 42.957 27.834 42.5805 27.123 41.871C26.412 41.1615 26.037 40.17 26.04 39V26.04H29.4585V35.541C28.596 35.7795 27.9585 36.5625 27.9585 37.5C27.9585 38.625 28.8735 39.54 29.9985 39.54C31.1235 39.54 32.0385 38.625 32.0385 37.5C32.0385 36.564 31.401 35.7795 30.5385 35.541V26.04H32.997C32.9985 26.04 33 26.04 33.0015 26.04C34.2 26.04 35.0355 25.2015 35.0385 24V23.04H38.5395C38.778 23.9025 39.561 24.54 40.4985 24.54C41.6235 24.54 42.5385 23.625 42.5385 22.5C42.5385 21.375 41.6235 20.46 40.4985 20.46C39.561 20.46 38.778 21.0975 38.5395 21.96H35.04V13.2075C35.9025 12.969 36.54 12.186 36.54 11.25C36.54 10.125 35.625 9.21 34.5 9.21C33.375 9.21 32.46 10.125 32.46 11.25C32.46 12.186 33.0975 12.969 33.96 13.2075V24C33.96 24.6015 33.603 24.9615 33.003 24.9615C33.0015 24.9615 33.0015 24.9615 33 24.9615H26.04V7.5C26.0415 6.3285 26.418 5.3325 27.1275 4.623C27.723 4.026 28.527 3.6825 29.46 3.5835V17.541C28.5975 17.7795 27.96 18.5625 27.96 19.4985C27.96 20.6235 28.875 21.5385 30 21.5385C31.125 21.5385 32.04 20.6235 32.04 19.4985C32.04 18.5625 31.4025 17.7795 30.54 17.541V3.576C32.1945 3.7485 33.4665 4.689 33.99 6.18C34.0665 6.396 34.272 6.54 34.5 6.54H35.586C37.224 6.5415 38.841 7.1145 40.0245 8.1075C41.2545 9.141 41.931 10.5465 41.928 12.069C41.9265 13.518 40.857 15.3825 40.1205 16.1175C39.9825 16.254 39.93 16.455 39.9795 16.6425C40.0305 16.83 40.179 16.9755 40.3665 17.0235C43.6635 17.874 45.9645 20.4345 45.96 23.25C45.957 26.061 43.68 28.605 40.419 29.46ZM35.46 30C35.46 30.5295 35.0295 30.96 34.5 30.96C33.9705 30.96 33.54 30.5295 33.54 30C33.54 29.4705 33.9705 29.04 34.5 29.04C35.0295 29.04 35.46 29.4705 35.46 30ZM30 36.54C30.5295 36.54 30.96 36.9705 30.96 37.5C30.96 38.0295 30.5295 38.46 30 38.46C29.4705 38.46 29.04 38.0295 29.04 37.5C29.04 36.9705 29.4705 36.54 30 36.54ZM34.5 12.21C33.9705 12.21 33.54 11.7795 33.54 11.25C33.54 10.7205 33.9705 10.29 34.5 10.29C35.0295 10.29 35.46 10.7205 35.46 11.25C35.46 11.7795 35.0295 12.21 34.5 12.21ZM39.54 22.5C39.54 21.9705 39.9705 21.54 40.5 21.54C41.0295 21.54 41.46 21.9705 41.46 22.5C41.46 23.0295 41.0295 23.46 40.5 23.46C39.9705 23.46 39.54 23.0295 39.54 22.5Z" fill="url(#paint0_linear)"/>
<defs>
<linearGradient id="paint0_linear" x1="-16.5001" y1="22.5" x2="68.2499" y2="24" gradientUnits="userSpaceOnUse">
<stop stop-color="#39AA82"/>
<stop offset="1" stop-color="#1C8DF0"/>
</linearGradient>
</defs>
</svg>
