<svg width="64" height="64" viewBox="0 0 32 32" fill="none" xmlns="http://www.w3.org/2000/svg">
<path d="M30.9999 0.640015H9.99989C9.80089 0.640015 9.63989 0.801015 9.63989 1.00001V3.64001H0.999893C0.800893 3.64001 0.639893 3.80101 0.639893 4.00001V31C0.639893 31.199 0.800893 31.36 0.999893 31.36H21.9999C22.1989 31.36 22.3599 31.199 22.3599 31V28.36H30.9999C31.1989 28.36 31.3599 28.199 31.3599 28V1.00001C31.3599 0.801015 31.1989 0.640015 30.9999 0.640015ZM21.6399 30.64H1.35989V4.36001H15.6399V10C15.6399 10.199 15.8009 10.36 15.9999 10.36H21.6399V30.64ZM16.3599 4.86901L21.1309 9.64001H16.3599V4.86901ZM30.6399 27.64H22.3599V10C22.3599 9.90401 22.3219 9.81301 22.2549 9.74601L16.2549 3.74601C16.1869 3.67801 16.0959 3.64001 15.9999 3.64001H10.3599V1.36001H30.6399V27.64ZM19.3599 16C19.3599 16.199 19.1989 16.36 18.9999 16.36H3.99989C3.80089 16.36 3.63989 16.199 3.63989 16C3.63989 15.801 3.80089 15.64 3.99989 15.64H18.9999C19.1989 15.64 19.3599 15.801 19.3599 16ZM19.3599 19C19.3599 19.199 19.1989 19.36 18.9999 19.36H3.99989C3.80089 19.36 3.63989 19.199 3.63989 19C3.63989 18.801 3.80089 18.64 3.99989 18.64H18.9999C19.1989 18.64 19.3599 18.801 19.3599 19ZM19.3599 22C19.3599 22.199 19.1989 22.36 18.9999 22.36H3.99989C3.80089 22.36 3.63989 22.199 3.63989 22C3.63989 21.801 3.80089 21.64 3.99989 21.64H18.9999C19.1989 21.64 19.3599 21.801 19.3599 22ZM19.3599 25C19.3599 25.199 19.1989 25.36 18.9999 25.36H3.99989C3.80089 25.36 3.63989 25.199 3.63989 25C3.63989 24.801 3.80089 24.64 3.99989 24.64H18.9999C19.1989 24.64 19.3599 24.801 19.3599 25Z" fill="url(#paint0_linear)"/>
<defs>
<linearGradient id="paint0_linear" x1="15.9999" y1="0.640015" x2="15.9999" y2="31.36" gradientUnits="userSpaceOnUse">
<stop stop-color="#1C8DF0"/>
<stop offset="1" stop-color="#986EE2"/>
</linearGradient>
</defs>
</svg>
